Coordinates
version=1
nRows=8
nColumns=46
inDegrees=yes

Units are S.I. units (second, meters, Newtons, ...)
Angles are in degrees.

endheader
time	pelvis_tilt	pelvis_list	pelvis_rotation	pelvis_tx	pelvis_ty	pelvis_tz	bb_angle	bb_tx	bb_ty	bb_tz	hip_flexion_r	hip_adduction_r	hip_rotation_r	knee_angle_r	knee_angle_r_beta	ankle_angle_r	subtalar_angle_r	mtp_angle_r	crank_angle_r	hip_flexion_l	hip_adduction_l	hip_rotation_l	knee_angle_l	knee_angle_l_beta	ankle_angle_l	subtalar_angle_l	mtp_angle_l	crank_angle_l	lumbar_extension	lumbar_bending	lumbar_rotation	arm_flex_r	arm_add_r	arm_rot_r	elbow_flex_r	pro_sup_r	wrist_flex_r	wrist_dev_r	arm_flex_l	arm_add_l	arm_rot_l	elbow_flex_l	pro_sup_l	wrist_flex_l	wrist_dev_l
      7.50500000	    -16.04465947	     -7.11553011	      2.45046790	      0.11621200	      1.07945110	     -0.25994098	      0.00000000	      0.50000000	      0.00000000	      0.25000000	     90.73706934	     -3.94681124	     -0.94267074	    118.12588486	      2.06168562	     16.27688950	     -8.30743430	      0.00000000	      0.00000000	     46.29020771	     -8.17926028	      2.75361679	     38.18091195	      0.66638262	     -6.53590446	     -6.11424091	      0.00000000	      0.00000000	    -56.11073059	      6.26544849	      2.28233174	     89.76481608	     -4.85862059	     34.97854255	     35.12063395	     22.90985808	      0.00000000	      0.00000000	     89.73351842	     -9.22854249	     39.24901749	     39.85669163	     24.69052975	      0.00000000	      0.00000000
      7.51000000	    -16.25990456	     -7.40887613	      2.46300540	      0.11516903	      1.08074075	     -0.26041003	      0.00000000	      0.50000000	      0.00000000	      0.25000000	     91.46313805	     -3.88176181	     -1.16001780	    117.59756974	      2.05246478	     15.23223593	     -8.91521044	      0.00000000	      0.00000000	     46.35356941	     -8.39544091	      2.91679549	     38.18675046	      0.66648453	     -7.08654165	     -6.27487020	      0.00000000	      0.00000000	    -56.05893352	      6.56634353	      2.71871492	     89.76005146	     -4.58988579	     33.22175869	     35.41456316	     22.73304228	      0.00000000	      0.00000000	     89.73534796	     -8.45055138	     37.72930239	     39.54994207	     24.30456564	      0.00000000	      0.00000000
      7.51500000	    -16.38094868	     -7.57062310	      2.49704548	      0.11421062	      1.08219586	     -0.26092520	      0.00000000	      0.50000000	      0.00000000	      0.25000000	     92.02481498	     -3.83823947	     -1.17893623	    117.08688626	      2.04355168	     14.43149875	     -8.79142116	      0.00000000	      0.00000000	     46.28594868	     -8.50747319	      2.96570183	     38.14852895	      0.66581744	     -7.55738288	     -6.21111281	      0.00000000	      0.00000000	    -56.07114229	      6.78599678	      2.87289200	     89.76438198	     -4.46565600	     33.16204556	     35.46894621	     22.72844007	      0.00000000	      0.00000000	     89.74064236	     -8.37426327	     37.68351556	     39.57696456	     24.28643939	      0.00000000	      0.00000000
      7.52000000	    -16.73574792	     -7.82583496	      2.52204610	      0.11311330	      1.08312968	     -0.26145989	      0.00000000	      0.50000000	      0.00000000	      0.25000000	     92.78703740	     -3.82123176	     -1.33303688	    116.52839524	      2.03380417	     13.48686294	     -9.42556553	      0.00000000	      0.00000000	     46.60860602	     -8.64026874	      3.11902060	     38.24967933	      0.66758284	     -8.16322841	     -6.53418624	      0.00000000	      0.00000000	    -55.81971363	      7.07207496	      3.11673455	     89.76543089	     -4.37214602	     32.67847304	     35.55391224	     22.67854593	      0.00000000	      0.00000000	     89.74321514	     -8.10323739	     37.47114212	     39.35730486	     24.16280578	      0.00000000	      0.00000000
      7.52500000	    -16.86219983	     -7.93747067	      2.56673969	      0.11218000	      1.08451460	     -0.26199915	      0.00000000	      0.50000000	      0.00000000	      0.25000000	     93.21815828	     -3.82807585	     -1.27373250	    116.00703980	      2.02470480	     12.81130760	     -9.21491015	      0.00000000	      0.00000000	     46.61990816	     -8.70570867	      3.11795677	     38.25613926	      0.66769559	     -8.56351372	     -6.46263338	      0.00000000	      0.00000000	    -55.80550218	      7.25137711	      3.22462088	     89.76925251	     -4.26655469	     32.55180120	     35.57996447	     22.66550617	      0.00000000	      0.00000000	     89.74851811	     -7.96904736	     37.40706975	     39.32677077	     24.13358486	      0.00000000	      0.00000000
      7.53000000	    -17.21693087	     -8.16374896	      2.60901431	      0.11099952	      1.08537916	     -0.26254166	      0.00000000	      0.50000000	      0.00000000	      0.25000000	     93.84935173	     -3.81035121	     -1.37235063	    115.41436603	      2.01436069	     11.87402159	     -9.72653795	      0.00000000	      0.00000000	     47.01387327	     -8.80573113	      3.24694301	     38.38259970	      0.66990274	     -9.16293428	     -6.64786430	      0.00000000	      0.00000000	    -55.51727037	      7.50876207	      3.52263764	     89.76724034	     -3.93017370	     30.97972601	     35.52249315	     22.43977728	      0.00000000	      0.00000000	     89.75375643	     -7.27769165	     36.58943504	     38.77129859	     23.73817588	      0.00000000	      0.00000000
      7.53500000	    -17.39228533	     -8.26093737	      2.69437558	      0.10996196	      1.08642995	     -0.26313968	      0.00000000	      0.50000000	      0.00000000	      0.25000000	     94.23830623	     -3.86709152	     -1.32139991	    114.91307674	      2.00561154	     11.31535787	     -9.60488888	      0.00000000	      0.00000000	     47.18213387	     -8.81444391	      3.23917166	     38.44000596	      0.67090467	     -9.64773540	     -6.63396998	      0.00000000	      0.00000000	    -55.42926770	      7.70774433	      3.58426642	     89.77179099	     -3.86351252	     30.85900514	     35.50379389	     22.41424508	      0.00000000	      0.00000000	     89.75903546	     -7.16352847	     36.52456938	     38.81182882	     23.71175193	      0.00000000	      0.00000000
      7.54000000	    -17.64676221	     -8.37280297	      2.80995792	      0.10881849	      1.08725307	     -0.26372672	      0.00000000	      0.50000000	      0.00000000	      0.25000000	     94.65539357	     -3.94434762	     -1.26830798	    114.41121786	      1.99685245	     10.77861260	     -9.62649095	      0.00000000	      0.00000000	     47.49903619	     -8.80047136	      3.27436594	     38.53240203	      0.67251728	    -10.20737333	     -6.66242594	      0.00000000	      0.00000000	    -55.22076838	      7.91174739	      3.63031760	     89.77408171	     -3.76445064	     30.66061252	     35.47048038	     22.37920594	      0.00000000	      0.00000000	     89.76211177	     -6.97520505	     36.42651994	     38.78707722	     23.66712317	      0.00000000	      0.00000000
